<mxfile host="app.diagrams.net" modified="2024-05-09T12:27:35.133Z" agent="Mozilla/5.0 (Windows NT 10.0; Win64; x64) AppleWebKit/537.36 (KHTML, like Gecko) Chrome/124.0.0.0 Safari/537.36" etag="xOmCH2IXhCG59ZsiSX3F" version="24.3.1" type="github">
  <diagram id="C5RBs43oDa-KdzZeNtuy" name="Page-1">
    <mxGraphModel dx="693" dy="812" grid="1" gridSize="10" guides="1" tooltips="1" connect="1" arrows="1" fold="1" page="1" pageScale="1" pageWidth="1169" pageHeight="827" math="0" shadow="0">
      <root>
        <mxCell id="WIyWlLk6GJQsqaUBKTNV-0" />
        <mxCell id="WIyWlLk6GJQsqaUBKTNV-1" parent="WIyWlLk6GJQsqaUBKTNV-0" />
        <mxCell id="faOE6TDyo1h8S2b4mFLX-2" value="USER DEVICE: query" style="shape=image;verticalLabelPosition=bottom;labelBackgroundColor=default;verticalAlign=top;aspect=fixed;imageAspect=0;image=https://banner2.cleanpng.com/20180331/zyq/kisspng-laptop-tablet-computers-mobile-phones-clip-art-computer-vector-5ac05899267f35.6604116215225550331577.jpg;clipPath=inset(32.33% 9.56% 33.33% 10%);fontStyle=1" vertex="1" parent="WIyWlLk6GJQsqaUBKTNV-1">
          <mxGeometry x="50" y="520" width="149.37" height="85" as="geometry" />
        </mxCell>
        <mxCell id="faOE6TDyo1h8S2b4mFLX-5" value="" style="endArrow=classic;html=1;rounded=0;fontSize=12;startSize=8;endSize=8;curved=1;" edge="1" parent="WIyWlLk6GJQsqaUBKTNV-1">
          <mxGeometry width="50" height="50" relative="1" as="geometry">
            <mxPoint x="114" y="510" as="sourcePoint" />
            <mxPoint x="114.34000000000002" y="358" as="targetPoint" />
          </mxGeometry>
        </mxCell>
        <mxCell id="faOE6TDyo1h8S2b4mFLX-6" value="" style="verticalLabelPosition=bottom;verticalAlign=top;html=1;shadow=0;dashed=0;strokeWidth=1;shape=mxgraph.android.indeterminateSpinner;" vertex="1" parent="WIyWlLk6GJQsqaUBKTNV-1">
          <mxGeometry x="120" y="410" width="140" height="80" as="geometry" />
        </mxCell>
        <mxCell id="faOE6TDyo1h8S2b4mFLX-9" value="&lt;b&gt;&lt;i&gt;DNS RESOLUTION&lt;/i&gt;&lt;/b&gt;" style="text;html=1;align=center;verticalAlign=middle;whiteSpace=wrap;rounded=0;fontSize=16;" vertex="1" parent="WIyWlLk6GJQsqaUBKTNV-1">
          <mxGeometry x="110" y="435" width="210" height="30" as="geometry" />
        </mxCell>
        <mxCell id="faOE6TDyo1h8S2b4mFLX-10" value="" style="shape=image;verticalLabelPosition=bottom;labelBackgroundColor=default;verticalAlign=top;aspect=fixed;imageAspect=0;image=https://w7.pngwing.com/pngs/671/422/png-transparent-black-server-illustration-server-microsoft-powerpoint-server-computer-network-electronics-computer-thumbnail.png;" vertex="1" parent="WIyWlLk6GJQsqaUBKTNV-1">
          <mxGeometry x="80.34" y="260" width="69.31" height="93" as="geometry" />
        </mxCell>
        <mxCell id="faOE6TDyo1h8S2b4mFLX-12" value="DNS SERVER" style="text;html=1;align=center;verticalAlign=middle;resizable=0;points=[];autosize=1;strokeColor=none;fillColor=none;fontSize=16;fontStyle=1" vertex="1" parent="WIyWlLk6GJQsqaUBKTNV-1">
          <mxGeometry x="30" y="210" width="130" height="30" as="geometry" />
        </mxCell>
        <mxCell id="faOE6TDyo1h8S2b4mFLX-13" value="" style="endArrow=classic;html=1;rounded=0;fontSize=12;startSize=8;endSize=8;curved=1;" edge="1" parent="WIyWlLk6GJQsqaUBKTNV-1">
          <mxGeometry width="50" height="50" relative="1" as="geometry">
            <mxPoint x="157.11" y="290" as="sourcePoint" />
            <mxPoint x="340" y="290" as="targetPoint" />
          </mxGeometry>
        </mxCell>
        <mxCell id="faOE6TDyo1h8S2b4mFLX-14" value="" style="image;aspect=fixed;perimeter=ellipsePerimeter;html=1;align=center;shadow=0;dashed=0;spacingTop=3;image=https://w7.pngwing.com/pngs/791/542/png-transparent-wall-brick-free-content-firewall-s-angle-building-rectangle-thumbnail.png;" vertex="1" parent="WIyWlLk6GJQsqaUBKTNV-1">
          <mxGeometry x="202.4" y="230" width="57.6" height="90" as="geometry" />
        </mxCell>
        <mxCell id="faOE6TDyo1h8S2b4mFLX-16" value="" style="edgeStyle=none;curved=1;rounded=0;orthogonalLoop=1;jettySize=auto;html=1;fontSize=12;startSize=8;endSize=8;" edge="1" parent="WIyWlLk6GJQsqaUBKTNV-1" source="faOE6TDyo1h8S2b4mFLX-15" target="faOE6TDyo1h8S2b4mFLX-14">
          <mxGeometry relative="1" as="geometry">
            <Array as="points">
              <mxPoint x="240" y="220" />
            </Array>
          </mxGeometry>
        </mxCell>
        <mxCell id="faOE6TDyo1h8S2b4mFLX-15" value="FIREWALL" style="text;html=1;align=center;verticalAlign=middle;resizable=0;points=[];autosize=1;strokeColor=none;fillColor=none;fontSize=16;fontStyle=1" vertex="1" parent="WIyWlLk6GJQsqaUBKTNV-1">
          <mxGeometry x="202.4" y="180" width="100" height="30" as="geometry" />
        </mxCell>
        <mxCell id="faOE6TDyo1h8S2b4mFLX-25" value="WEB SERVER&#xa;(SERVES CLIEN&quot;TS SIDE CODE)" style="shape=image;verticalLabelPosition=bottom;labelBackgroundColor=default;verticalAlign=top;aspect=fixed;imageAspect=0;image=https://w7.pngwing.com/pngs/842/328/png-transparent-black-and-gray-computer-illustration-computer-monitor-drawing-cartoon-cartoon-computer-cartoon-character-blue-png-graphics-thumbnail.png;fontStyle=1" vertex="1" parent="WIyWlLk6GJQsqaUBKTNV-1">
          <mxGeometry x="340" y="260" width="97.74" height="60" as="geometry" />
        </mxCell>
        <mxCell id="faOE6TDyo1h8S2b4mFLX-26" value="" style="endArrow=classic;html=1;rounded=0;fontSize=12;startSize=8;endSize=8;curved=1;" edge="1" parent="WIyWlLk6GJQsqaUBKTNV-1">
          <mxGeometry width="50" height="50" relative="1" as="geometry">
            <mxPoint x="430" y="289.44" as="sourcePoint" />
            <mxPoint x="570" y="289" as="targetPoint" />
          </mxGeometry>
        </mxCell>
        <mxCell id="faOE6TDyo1h8S2b4mFLX-27" value="" style="image;aspect=fixed;perimeter=ellipsePerimeter;html=1;align=center;shadow=0;dashed=0;spacingTop=3;image=img/lib/active_directory/databases.svg;" vertex="1" parent="WIyWlLk6GJQsqaUBKTNV-1">
          <mxGeometry x="569.99" y="252.7" width="89.39" height="87.6" as="geometry" />
        </mxCell>
        <mxCell id="faOE6TDyo1h8S2b4mFLX-28" value="WEATHER API" style="text;html=1;align=center;verticalAlign=middle;resizable=0;points=[];autosize=1;strokeColor=none;fillColor=none;fontSize=16;fontStyle=1" vertex="1" parent="WIyWlLk6GJQsqaUBKTNV-1">
          <mxGeometry x="554" y="230" width="130" height="30" as="geometry" />
        </mxCell>
        <mxCell id="faOE6TDyo1h8S2b4mFLX-30" value="&lt;b&gt;HTTP&lt;br&gt;REQUEST&lt;/b&gt;" style="text;html=1;align=center;verticalAlign=middle;resizable=0;points=[];autosize=1;strokeColor=none;fillColor=none;fontSize=16;" vertex="1" parent="WIyWlLk6GJQsqaUBKTNV-1">
          <mxGeometry x="454" y="191" width="100" height="50" as="geometry" />
        </mxCell>
        <mxCell id="faOE6TDyo1h8S2b4mFLX-31" value="" style="image;aspect=fixed;perimeter=ellipsePerimeter;html=1;align=center;shadow=0;dashed=0;spacingTop=3;image=img/lib/active_directory/documents.svg;" vertex="1" parent="WIyWlLk6GJQsqaUBKTNV-1">
          <mxGeometry x="490" y="241" width="33" height="50" as="geometry" />
        </mxCell>
        <mxCell id="faOE6TDyo1h8S2b4mFLX-32" value="" style="endArrow=classic;html=1;rounded=0;fontSize=12;startSize=8;endSize=8;curved=1;" edge="1" parent="WIyWlLk6GJQsqaUBKTNV-1">
          <mxGeometry width="50" height="50" relative="1" as="geometry">
            <mxPoint x="620" y="340" as="sourcePoint" />
            <mxPoint x="620" y="440" as="targetPoint" />
          </mxGeometry>
        </mxCell>
        <mxCell id="faOE6TDyo1h8S2b4mFLX-33" value="user web browser&#xa;data receivedÂ " style="shape=image;verticalLabelPosition=bottom;labelBackgroundColor=default;verticalAlign=top;aspect=fixed;imageAspect=0;image=https://banner2.cleanpng.com/20180331/zyq/kisspng-laptop-tablet-computers-mobile-phones-clip-art-computer-vector-5ac05899267f35.6604116215225550331577.jpg;clipPath=inset(32.33% 9.56% 33.33% 10%);fontStyle=1" vertex="1" parent="WIyWlLk6GJQsqaUBKTNV-1">
          <mxGeometry x="554" y="440" width="149.37" height="85" as="geometry" />
        </mxCell>
        <mxCell id="faOE6TDyo1h8S2b4mFLX-37" value="&lt;i style=&quot;&quot;&gt;&lt;b&gt;Weather data&lt;br&gt;packets&lt;/b&gt;&lt;/i&gt;" style="rhombus;whiteSpace=wrap;html=1;" vertex="1" parent="WIyWlLk6GJQsqaUBKTNV-1">
          <mxGeometry x="617" y="350" width="153" height="60" as="geometry" />
        </mxCell>
        <mxCell id="faOE6TDyo1h8S2b4mFLX-38" value="" style="image;aspect=fixed;perimeter=ellipsePerimeter;html=1;align=center;shadow=0;dashed=0;spacingTop=3;image=img/lib/active_directory/key.svg;" vertex="1" parent="WIyWlLk6GJQsqaUBKTNV-1">
          <mxGeometry x="220" y="260" width="27.03" height="20" as="geometry" />
        </mxCell>
      </root>
    </mxGraphModel>
  </diagram>
</mxfile>
